<?xml version="1.0" standalone="no"?>
<!DOCTYPE svg PUBLIC "-//W3C//DTD SVG 20010904//EN"
 "http://www.w3.org/TR/2001/REC-SVG-20010904/DTD/svg10.dtd">
<svg version="1.0" xmlns="http://www.w3.org/2000/svg"
 width="341.000000pt" height="341.000000pt" viewBox="0 0 341.000000 341.000000"
 preserveAspectRatio="xMidYMid meet">
<metadata>
Created by potrace 1.14, written by Peter Selinger 2001-2017
</metadata>
<g transform="translate(0.000000,341.000000) scale(0.100000,-0.100000)"
fill="#000000" stroke="none">
<path d="M1482 3394 c-250 -37 -467 -115 -676 -243 -372 -228 -645 -603 -751
-1031 -40 -158 -49 -233 -49 -400 -1 -125 7 -240 19 -300 3 -14 8 -38 11 -55
30 -169 127 -410 229 -570 108 -170 252 -327 410 -447 79 -60 230 -151 297
-179 29 -12 58 -26 64 -31 32 -24 302 -102 389 -113 28 -4 58 -8 67 -11 32 -9
294 -12 371 -4 188 20 261 37 420 94 366 133 667 378 873 711 54 87 144 274
144 298 0 9 4 18 9 21 5 3 11 16 14 28 2 13 16 66 30 118 14 52 28 118 32 145
4 28 10 61 12 75 2 14 6 95 7 181 2 140 -13 307 -38 404 -21 84 -39 142 -64
210 -34 95 -132 295 -144 295 -4 0 -8 5 -8 11 0 9 -54 93 -70 109 -3 3 -21 25
-40 50 -69 89 -213 236 -280 284 -275 198 -512 300 -800 346 -103 17 -377 19
-478 4z"/>
</g>
</svg>
