<svg width="114" height="208" viewBox="0 0 114 208" fill="none" xmlns="http://www.w3.org/2000/svg">
<path d="M40.3193 128.001L7.81931 20.5014C6.60998 16.5013 6.31934 11.5014 7.81931 7.50136C9.31929 3.50136 13.3193 0.501358 20.3193 6.00136C34.8193 16.0014 52.7501 31.0016 56.5 35.5015C60.2499 40.0014 58.8121 41.5301 59.3193 46.0014C60 52.0015 61 53.0015 64.5 55.5015C68 58.0015 91.8193 75.5014 94.8193 80.0014C97.8193 84.5014 98.3193 89.0014 96.8193 96.5014C95.3193 104.001 91.8193 108.501 90.8193 124.501C89.8193 140.501 95.3193 147.001 96.8193 150.501C98.3193 154.001 108.819 169.501 110.319 172.001C111.819 174.501 111.827 178.823 108.819 183.001C104.5 189.001 86.3193 196.501 80.3193 199.501C74.3193 202.501 66.8193 205.501 60.8193 205.001C54.8193 204.501 51.8193 198.001 49.8193 195.501C47.8193 193.001 42.8193 186.001 36.8193 184.001C30.8193 182.001 22.3193 186.001 16.8193 186.001C11.3193 186.001 7.31931 184.501 4.81931 180.501C2.31931 176.501 2.81931 170.501 3.81931 164.001C4.81931 157.501 11.8193 152.501 16.8193 150.501C21.8193 148.501 26.3193 149.001 30.3193 148.001C34.3193 147.001 37.0662 145.023 39.3193 141.001C41 138.001 40.986 131.168 40.3193 128.001Z" stroke="white" stroke-width="5"/>
<g clip-path="url(#clip0)">
<path d="M40.8151 95.7759C40.6468 96.095 40.3825 96.3532 40.0612 96.5124C39.7399 96.6717 39.3786 96.7234 39.0308 96.6601L30.7792 95.2487L24.8338 101.374C24.5854 101.635 24.2621 101.811 23.9116 101.874C23.5611 101.938 23.202 101.887 22.8875 101.728C22.8782 101.724 22.8688 101.719 22.8597 101.714C22.5494 101.559 22.298 101.307 22.1416 100.995C21.9853 100.683 21.9321 100.327 21.9897 99.9774L24.8808 81.1682C24.9292 80.8529 25.0643 80.5558 25.2705 80.3109C25.4767 80.0659 25.7457 79.883 26.0468 79.7831C26.3479 79.6831 26.6689 79.6701 26.9732 79.7455C27.2774 79.821 27.5526 79.9819 27.7672 80.2098L40.5746 93.807C40.8192 94.061 40.9747 94.3896 41.018 94.7441C41.0614 95.0987 40.9903 95.4604 40.8152 95.7759L40.8151 95.7759Z" fill="white"/>
</g>
<defs>
<clipPath id="clip0">
<rect width="26.6628" height="27.3001" fill="white" transform="matrix(0.889685 0.456576 -0.460903 0.887451 24.5826 75)"/>
</clipPath>
</defs>
</svg>
