<svg width="229" height="184" viewBox="0 0 229 184" fill="none" xmlns="http://www.w3.org/2000/svg">
<g clip-path="url(#clip0)">
<path d="M30.67 60.2189C30.511 60.5415 30.2542 60.8061 29.9381 60.9733C29.6216 61.1407 29.2625 61.2018 28.9136 61.148L20.6369 59.9596L14.8729 66.2252C14.6323 66.4927 14.3146 66.6761 13.9665 66.7492C13.6181 66.8222 13.2584 66.7806 12.9401 66.6306C12.9307 66.6263 12.921 66.622 12.9119 66.6177C12.5977 66.4708 12.3398 66.2263 12.1751 65.9193C12.0101 65.6121 11.9471 65.2582 11.9948 64.9086L14.3557 46.0748C14.3954 45.7594 14.5217 45.4595 14.7206 45.2098C14.9199 44.96 15.1832 44.7705 15.481 44.6628C15.7788 44.5551 16.0991 44.5336 16.4048 44.6006C16.7104 44.6679 16.9898 44.821 17.2103 45.0425L30.3749 58.2619C30.6261 58.5087 30.7907 58.8321 30.8438 59.1846C30.897 59.5369 30.836 59.8996 30.6702 60.219L30.67 60.2189Z" fill="white"/>
<path d="M6.42438 14.4999C5.97345 11.3126 4.5057 6.43634 6.42438 4.49999C7.80241 3.10929 9.288 2.23837 12.6253 3.15738C20.2043 5.24447 39.0346 20.5853 42.4994 24.5C44.699 26.9851 45.3256 36.4685 48.4994 39.5C53.7483 44.5134 57.6096 47.826 64.4994 52C69.4994 55.0291 69.8657 55.6522 73.9994 64C78.1334 72.348 82.6218 81.5209 86.4994 82.5C90.3773 83.4788 92.7961 78.8772 95.9994 75.5C98.0054 73.3851 102.567 68.901 106.499 70C114.499 71.5 121.841 87.8865 128.999 100C135.499 111 169.716 145.768 177.984 150.637C186.252 155.507 192.543 159.212 203.911 160.705C214.785 162.134 223.527 160.705 225.499 165C227.999 170.444 219.999 174.522 215.999 175.5C201.999 178.922 167.499 179.558 156.499 178.5C142.999 177.202 121.195 171.806 111.999 170C101.817 168 94.0663 165.739 91.9994 164C87.8654 160.522 87.1762 156.891 91.9994 155.5C95.5668 154.471 107.706 155.507 114.596 153.42C122.865 150.915 123.692 140.413 119.419 133.942C115.285 127.681 109.59 126.633 103.499 128C97.5 129.5 91.9994 136.5 88.4994 139C83.3209 142.699 62.0111 153.218 56.4994 156C52.4994 158.019 47.0773 157.576 42.9994 153.42C39.2089 149.557 36.9994 142.61 32.6431 141.5C26.7562 140 22.9485 140.573 18.9994 141.5C12.9485 142.92 8.99939 141.5 7.49949 140C3.00031 135.5 4.9993 126 7.49992 123C10.0005 120 21.3573 114.5 27.5002 112.5C33.6431 110.5 33.5506 103 32.6431 97.4999C31.7356 91.9999 7.11334 19.3696 6.42438 14.4999Z" stroke="white" stroke-width="6"/>
</g>
<defs>
<clipPath id="clip0">
<rect width="229" height="184" fill="white"/>
</clipPath>
</defs>
</svg>
