<svg width="177" height="184" viewBox="0 0 177 184" fill="none" xmlns="http://www.w3.org/2000/svg">
<path d="M31.125 97.5771C30.725 95.1771 15.125 46.4105 7.625 22.0771C6.29167 18.9105 4.225 11.5771 4.625 9.57715C5.125 7.07715 6.625 4.57713 9.125 4.07713C11.625 3.57713 16.625 5.57713 20.625 8.07713C24.625 10.5771 40.625 24.0771 43.625 27.0771C46.625 30.0771 46.625 38.0771 49.125 41.0771C51.625 44.0771 57.125 47.0771 59.625 48.5771C62.125 50.0771 72.125 58.5771 74.625 62.0771C77.125 65.5771 76.125 69.0771 78.125 74.5771C80.125 80.0771 82.125 81.5771 87.125 82.0771C92.125 82.5771 95.125 76.0771 97.125 73.5771C99.125 71.0771 100.625 70.5771 104.125 70.5771C107.625 70.5771 109.125 71.0771 113.125 74.5771C117.125 78.0771 134.625 109.577 139.125 115.077C143.625 120.577 163.348 139.756 165.625 141.577L165.625 141.577C168.125 143.577 170.625 145.577 171.625 148.577C173.125 153.077 172.625 173.577 171.625 175.577C170.625 177.577 166.625 180.577 153.625 179.577C140.625 178.577 92.5 167 90.125 163.077C87.8519 159.323 90.5 157.1 93.125 156.577C96.8597 155.834 109.625 155.577 112.125 155.577C114.625 155.577 121.625 151.577 122.125 147.077C122.625 142.577 122.125 139.077 118.625 134.577C115.125 130.077 108.125 126.577 103.125 127.577C98.125 128.577 86.5 142.577 82.125 145.077C77.01 148 50.625 158.077 47.125 158.077C43.625 158.077 44.125 156.577 42.625 155.577C41.125 154.577 36.625 144.577 31.125 142.577C25.625 140.577 15.125 144.077 10.625 143.577C6.125 143.077 5.625 142.077 4.125 140.077C2.625 138.077 2.625 130.077 4.125 125.577C5.625 121.077 8.125 118.577 11.625 116.577C15.125 114.577 18.125 115.577 22.125 115.077C26.125 114.577 28.125 113.577 31.125 109.577C34.125 105.577 31.625 100.577 31.125 97.5771Z" stroke="white" stroke-width="6"/>
<g clip-path="url(#clip0)">
<path d="M33.4334 70.7221C33.2526 71.0676 32.9677 71.3476 32.6209 71.5208C32.2742 71.694 31.8839 71.7511 31.5078 71.6838L22.5837 70.1861L16.1779 76.8268C15.9103 77.1102 15.5614 77.3011 15.1828 77.3713C14.8042 77.4415 14.4159 77.3873 14.0753 77.2167C14.0653 77.2119 14.0551 77.2068 14.0453 77.2018C13.7093 77.0349 13.4367 76.7636 13.2667 76.4268C13.0966 76.09 13.0379 75.7051 13.099 75.3273L16.1603 54.9863C16.2116 54.6454 16.3566 54.3238 16.5786 54.0584C16.8007 53.7929 17.0909 53.5943 17.416 53.4852C17.7412 53.3761 18.0881 53.361 18.4172 53.4415C18.7463 53.5221 19.0443 53.695 19.2771 53.9406L33.1667 68.5947C33.432 68.8684 33.6012 69.223 33.6492 69.6061C33.6973 69.9892 33.6217 70.3805 33.4335 70.7221L33.4334 70.7221Z" fill="white"/>
</g>
<defs>
<clipPath id="clip0">
<rect width="28.8203" height="29.5092" fill="white" transform="matrix(0.923358 0.383941 -0.388433 0.921477 14.3057 48.8525)"/>
</clipPath>
</defs>
</svg>
